<?xml version="1.0" encoding="UTF-8"?>
<svg width="700pt" height="700pt" version="1.1" viewBox="0 0 700 700" xmlns="http://www.w3.org/2000/svg">
 <path d="m420 396.46c0 6.1875-2.457 12.121-6.8359 16.5-4.375 4.375-10.309 6.832-16.496 6.832-6.1914 0-12.125-2.457-16.5-6.832-4.375-4.3789-6.8359-10.312-6.8359-16.5s2.4609-12.125 6.8359-16.5 10.309-6.832 16.5-6.832c6.1875 0 12.121 2.457 16.496 6.832 4.3789 4.375 6.8359 10.312 6.8359 16.5zm-116.67-70c6.1914 0 12.125-2.457 16.5-6.8359 4.375-4.375 6.8359-10.309 6.8359-16.496 0-6.1914-2.4609-12.125-6.8359-16.5s-10.309-6.8359-16.5-6.8359c-6.1875 0-12.121 2.4609-16.496 6.8359-4.3789 4.375-6.8359 10.309-6.8359 16.5 0 6.1875 2.457 12.121 6.8359 16.496 4.375 4.3789 10.309 6.8359 16.496 6.8359zm96.738-43.238-116.67 116.67h0.003906c-4.5547 4.5625-4.5508 11.953 0.011719 16.508 4.5625 4.5547 11.953 4.5508 16.508-0.011719l116.67-116.67c4.5547-4.5586 4.5508-11.949-0.011719-16.508-4.5625-4.5547-11.953-4.5508-16.508 0.011719zm103.32 3.0586h0.003906c18.801 32.289 25.605 70.176 19.215 106.99-6.3945 36.812-25.574 70.191-54.16 94.25-28.59 24.059-64.75 37.258-102.12 37.27h-32.664c-37.367-0.011718-73.527-13.211-102.12-37.27-28.586-24.059-47.766-57.438-54.16-94.25-6.3906-36.816 0.41406-74.703 19.215-106.99l143.31-245.7h0.003906c2.25-3.3633 6.0312-5.3828 10.078-5.3828s7.8281 2.0195 10.078 5.3828zm-1.7227 79.914c-0.007813-23.945-6.3594-47.461-18.41-68.156l-133.26-228.41-133.26 228.41c-16.031 27.543-21.832 59.859-16.375 91.258 5.457 31.398 21.816 59.863 46.203 80.383 24.383 20.52 55.227 31.773 87.098 31.781h32.668-0.003907c35.883 0 70.293-14.25 95.672-39.613 25.379-25.367 39.645-59.77 39.664-95.652z"/>
</svg>
