<?xml version="1.0" encoding="UTF-8"?>
<!DOCTYPE svg PUBLIC "-//W3C//DTD SVG 1.1//EN" "http://www.w3.org/Graphics/SVG/1.1/DTD/svg11.dtd">
<!-- Creator: CorelDRAW 2019 (64-Bit) -->
<svg xmlns="http://www.w3.org/2000/svg" xml:space="preserve" width="210mm" height="297mm" version="1.1" style="shape-rendering:geometricPrecision; text-rendering:geometricPrecision; image-rendering:optimizeQuality; fill-rule:evenodd; clip-rule:evenodd"
viewBox="0 0 21000 29700"
 xmlns:xlink="http://www.w3.org/1999/xlink"
 xmlns:xodm="http://www.corel.com/coreldraw/odm/2003">
 <defs>
  <style type="text/css">
   <![CDATA[
    .fil0 {fill:black;fill-rule:nonzero}
   ]]>
  </style>
 </defs>
 <g id="Layer_x0020_1">
  <metadata id="CorelCorpID_0Corel-Layer"/>
  <path class="fil0" d="M12969.44 16489.01c0,218.28 -86.68,427.6 -241.16,582.08 -154.34,154.34 -363.68,241.02 -581.94,241.02 -218.42,0 -427.74,-86.68 -582.08,-241.02 -154.34,-154.48 -241.16,-363.78 -241.16,-582.08 0,-218.3 86.82,-427.74 241.16,-582.08 154.34,-154.34 363.68,-241.02 582.08,-241.02 218.28,0 427.6,86.68 581.94,241.02 154.48,154.34 241.16,363.78 241.16,582.08zm-4115.85 -2469.45c218.42,0 427.74,-86.68 582.08,-241.16 154.34,-154.34 241.16,-363.68 241.16,-581.94 0,-218.42 -86.82,-427.74 -241.16,-582.08 -154.34,-154.34 -363.68,-241.16 -582.08,-241.16 -218.28,0 -427.6,86.82 -581.94,241.16 -154.48,154.34 -241.16,363.68 -241.16,582.08 0,218.28 86.68,427.6 241.16,581.94 154.34,154.48 363.68,241.16 581.94,241.16zm3412.7 -1525.34l-4115.86 4115.86 0.14 0c-160.68,160.95 -160.54,421.68 0.41,582.37 160.95,160.68 421.68,160.54 582.37,-0.41l4115.86 -4115.86c160.68,-160.82 160.54,-421.53 -0.41,-582.37 -160.95,-160.68 -421.68,-160.54 -582.37,0.41l-0.14 0zm3644.9 107.9l0.13 0c663.26,1139.08 903.29,2475.65 677.86,3774.37 -225.58,1298.65 -902.19,2476.18 -1910.64,3324.93 -1008.59,848.75 -2284.24,1314.38 -3602.57,1314.8l-1152.31 0c-1318.22,-0.41 -2593.87,-466.05 -3602.57,-1314.8 -1008.45,-848.75 -1685.08,-2026.28 -1910.64,-3324.93 -225.45,-1298.79 14.61,-2635.36 677.86,-3774.37l5055.66 -8667.75 0.14 0c79.37,-118.65 212.77,-189.89 355.53,-189.89 142.76,0 276.16,71.24 355.53,189.89l5056.02 8667.75zm-60.78 2819.19c-0.28,-844.73 -224.35,-1674.32 -649.46,-2404.39l-4701.12 -8057.8 -4701.12 8057.8c-565.54,971.66 -770.18,2111.69 -577.67,3219.38 192.51,1107.65 769.62,2111.83 1629.94,2835.73 860.18,723.9 1948.29,1120.88 3072.62,1121.16l1152.46 0c309.57,0 4535.23,-169.4 4774.35,-4771.88z"/>
 </g>
</svg>
